<svg id="Capa_1" enable-background="new 0 0 512 512" style="fill:#fff" height="512" viewBox="0 0 512 512" width="512" xmlns="http://www.w3.org/2000/svg"><path d="m437.02 74.98c-48.353-48.351-112.64-74.98-181.02-74.98s-132.667 26.629-181.02 74.98c-48.351 48.353-74.98 112.64-74.98 181.02s26.629 132.667 74.98 181.02c48.353 48.351 112.64 74.98 181.02 74.98s132.667-26.629 181.02-74.98c48.351-48.353 74.98-112.64 74.98-181.02s-26.629-132.667-74.98-181.02zm44.478 166.02h-66.247c-6.186-66.198-52.886-120.8-114.986-138.711-3.108-15.729-14.413-28.54-29.265-33.791v-37.996c54.721 3.562 105.675 26.562 144.806 65.692s62.13 90.086 65.692 144.806zm-105.882 122.343c0 8.34-6.785 15.125-15.125 15.125s-15.125-6.785-15.125-15.125 6.785-15.125 15.125-15.125 15.125 6.785 15.125 15.125zm-6.064-44.211c-31.047-6.329-59.094 21.055-53.489 52.054-17.977 9.415-38.402 14.765-60.063 14.765-57.778 0-106.856-37.908-123.703-90.155 14.197-7.611 23.877-22.592 23.877-39.796s-9.68-32.185-23.877-39.796c12.802-39.696 44.216-71.093 83.915-83.893 5.286 9.851 14.123 17.518 24.788 21.289v28.654c-34.331 6.972-60.25 37.387-60.25 73.745 0 41.493 33.757 75.25 75.25 75.25 36.358 0 66.772-25.919 73.745-60.25h55.338c-1.998 17.299-7.403 33.574-15.531 48.133zm-258.502-78.257c8.34 0 15.125 6.785 15.125 15.125s-6.785 15.125-15.125 15.125-15.125-6.785-15.125-15.125 6.785-15.125 15.125-15.125zm144.95-144.951c8.34 0 15.125 6.785 15.125 15.125s-6.785 15.125-15.125 15.125-15.125-6.785-15.125-15.125 6.785-15.125 15.125-15.125zm15 145.076v-27.684c12.901 4.547 23.136 14.782 27.684 27.684zm27.684 30c-6.203 17.599-22.99 30.25-42.684 30.25-24.951 0-45.25-20.299-45.25-45.25 0-19.694 12.651-36.481 30.25-42.684v57.684zm31.061-30c-5.988-29.482-29.263-52.757-58.745-58.745v-28.654c10.673-3.774 19.515-11.449 24.799-21.311 47.66 15.368 83.382 57.562 89.288 108.709h-55.342zm86.061 174.806c-42.686 42.686-99.439 66.194-159.806 66.194s-117.12-23.508-159.806-66.194-66.194-99.439-66.194-159.806 23.508-117.12 66.194-159.806c39.13-39.13 90.085-62.13 144.806-65.692v37.996c-14.854 5.252-26.16 18.067-29.266 33.8-52.666 15.19-94.245 56.772-109.436 109.437-20.706 4.086-36.373 22.377-36.373 44.265s15.667 40.18 36.375 44.266c19.247 66.732 80.856 115.685 153.7 115.685 27.026 0 52.505-6.743 74.851-18.626 7.935 6.93 18.302 11.143 29.64 11.143 24.882 0 45.125-20.243 45.125-45.125 0-10.909-3.892-20.926-10.36-28.736 10.834-19.113 17.842-40.663 19.987-63.606h66.254c-3.561 54.719-26.56 105.675-65.691 144.805z"/></svg>